<svg xmlns="http://www.w3.org/2000/svg" version="1.1" id="svgcontent" x="507" y="389" viewBox="0 0 79 79"><defs id="defs853" opacity="0.33" style="pointer-events: none"><clipPath id="clipPath1420" clipPathUnits="userSpaceOnUse"><path id="path1418" d="M0,1080L1920,1080L1920,0L0,0L0,1080z"></path></clipPath><clipPath id="clipPath1428" clipPathUnits="userSpaceOnUse"><path id="path1426" d="M2.31224,1078.65L1921.71,1078.65L1921.71,0.3546L2.31224,0.3546L2.31224,1078.65z"></path></clipPath><clipPath id="clipPath1460" clipPathUnits="userSpaceOnUse"><path id="path1458" d="M0.00002,1083.19L1921.71,1083.19L1921.71,-3.05673L0.00002,-3.05673L0.00002,1083.19z"></path></clipPath><clipPath id="clipPath1492" clipPathUnits="userSpaceOnUse"><path id="path1490" d="M11.7831,1078.21L1910.67,1078.21L1910.67,42.0222L11.7831,42.0222L11.7831,1078.21z"></path></clipPath><clipPath id="clipPath1496" clipPathUnits="userSpaceOnUse"><path id="path1494" d="M11.7831,1017.59L1879.91,1017.59L1879.91,42.0222L11.7831,42.0222L11.7831,1017.59z"></path></clipPath><clipPath id="clipPath1500" clipPathUnits="userSpaceOnUse"><path id="path1498" d="M121.596,1078.21L1910.67,1078.21L1910.67,117.8L121.596,117.8L121.596,1078.21z"></path></clipPath><clipPath id="clipPath2268" clipPathUnits="userSpaceOnUse"><path id="path2266" d="M0,1080L1920,1080L1920,0L0,0L0,1080z"></path></clipPath><clipPath id="clipPath2280" clipPathUnits="userSpaceOnUse"><path id="path2278" d="M1609.83,82.2588L1636.31,82.2588L1636.31,63.5831L1609.83,63.5831L1609.83,82.2588z"></path></clipPath><clipPath id="clipPath2296" clipPathUnits="userSpaceOnUse"><path id="path2294" d="M1600.18,103.19L1623.04,103.19L1623.04,76.7676L1600.18,76.7676L1600.18,103.19z"></path></clipPath><clipPath id="clipPath2312" clipPathUnits="userSpaceOnUse"><path id="path2310" d="M1618.19,89.9323L1640.31,89.9323L1640.31,63.6456L1618.19,63.6456L1618.19,89.9323z"></path></clipPath><clipPath id="clipPath2328" clipPathUnits="userSpaceOnUse"><path id="path2326" d="M1604.2,103.117L1630.66,103.117L1630.66,84.441L1604.2,84.441L1604.2,103.117z"></path></clipPath><clipPath id="clipPath2474" clipPathUnits="userSpaceOnUse"><path id="path2472" d="M0,1080L1920,1080L1920,0L0,0L0,1080z"></path></clipPath><clipPath id="clipPath2482" clipPathUnits="userSpaceOnUse"><path id="path2480" d="M1258.575,-1094.026L926.826,-9.01L0,-9.01L0,-1094.026L1258.575,-1094.026z"></path></clipPath><clipPath id="clipPath2490" clipPathUnits="userSpaceOnUse"><path id="path2488" d="M-307.943,-1106.382L1369.67,-1106.382L1369.67,12.027L-307.943,12.027L-307.943,-1106.382z"></path></clipPath></defs><metadata id="metadata856" opacity="0.33" style="pointer-events: none">image/svg+xml</metadata><g style="pointer-events:all"><title style="pointer-events: none" opacity="0.33">Layer 1</title><g id="layer1"><path stroke-width="0.35278" fill-rule="nonzero" fill="#32bcad" id="path2376" d="M61.23338262260437,60.06575019897461 C58.15293262260437,60.06575019897461 55.25556262260437,58.8663101989746 53.07716262260437,56.68896019897461 L41.30038262260437,44.91183019897461 C40.47347262260437,44.08280019897461 39.03237262260437,44.08527019897461 38.20582262260437,44.91183019897461 L26.38600262260437,56.73200019897461 C24.20759262260437,58.909340198974604 21.31023262260437,60.1087901989746 18.22977262260437,60.1087901989746 L15.90885262260437,60.1087901989746 L30.82465262260437,75.0242301989746 C35.48272262260437,79.6823101989746 43.03534262260437,79.6823101989746 47.69377262260437,75.0242301989746 L62.65190262260437,60.06575019897461 L61.23338262260437,60.06575019897461 z"></path><path stroke-width="0.35278" fill-rule="nonzero" fill="#32bcad" id="path2380" d="M18.22963262260437,18.408870198974608 C21.31009262260437,18.408870198974608 24.20745262260437,19.60831019897461 26.38585262260437,21.78566019897461 L38.20567262260437,33.607590198974606 C39.05692262260437,34.45920019897461 40.44687262260437,34.46238019897461 41.30024262260437,33.60659019897461 L53.07702262260437,21.82875019897461 C55.25542262260437,19.65140019897461 58.15278262260437,18.45196019897461 61.23324262260437,18.45196019897461 L62.65176262260437,18.45196019897461 L47.69398262260437,3.49383019897461 C43.03520262260437,-1.1646098010253905 35.48258262260437,-1.1646098010253905 30.82450262260437,3.49383019897461 L15.90941262260437,18.40892019897461 L18.22963262260437,18.408870198974608 z"></path><path stroke-width="0.35278" fill-rule="nonzero" fill="#32bcad" id="path2384" d="M75.02445262260437,30.82432019897461 L65.98523262260437,21.78510019897461 C65.78626262260437,21.86480019897461 65.57071262260438,21.91456019897461 65.34317262260437,21.91456019897461 L61.23331262260437,21.91456019897461 C59.10853262260437,21.91456019897461 57.02855262260437,22.77640019897461 55.52713262260437,24.27888019897461 L43.75070262260437,36.05566019897461 C42.64863262260437,37.15774019897461 41.20048262260437,37.70913019897461 39.75373262260437,37.70913019897461 C38.30558262260437,37.70913019897461 36.85849262260437,37.15774019897461 35.75676262260437,36.05672019897461 L23.93588262260437,24.23584019897461 C22.43446262260437,22.73301019897461 20.35448262260437,21.87153019897461 18.22970262260437,21.87153019897461 L13.17616262260437,21.87153019897461 C12.96061262260437,21.87153019897461 12.75918262260437,21.82073019897461 12.56903262260437,21.74911019897461 L3.49382262260437,30.82432019897461 C-1.1646073773956298,35.48275019897461 -1.1646073773956298,43.03502019897461 3.49382262260437,47.69345019897461 L12.56868262260437,56.76830019897461 C12.75918262260437,56.69670019897461 12.96061262260437,56.64589019897461 13.17616262260437,56.64589019897461 L18.22970262260437,56.64589019897461 C20.35448262260437,56.64589019897461 22.43446262260437,55.78441019897461 23.93588262260437,54.28193019897461 L35.75570262260437,42.46211019897461 C37.89213262260437,40.32745019897461 41.61640262260437,40.32674019897461 43.75070262260437,42.46311019897461 L55.52713262260437,54.23884019897461 C57.02855262260437,55.74132019897461 59.10853262260437,56.60315019897461 61.23331262260437,56.60315019897461 L65.34317262260437,56.60315019897461 C65.57071262260438,56.60315019897461 65.78626262260437,56.65285019897461 65.98523262260437,56.73262019897461 L75.02445262260437,47.69340019897461 C79.68253262260437,43.03497019897461 79.68253262260437,35.48270019897461 75.02445262260437,30.82427019897461 "></path></g></g></svg>
